<svg width="164" height="26" viewBox="0 0 164 26" fill="none" xmlns="http://www.w3.org/2000/svg">
<path fill-rule="evenodd" clip-rule="evenodd" d="M59.8795 9.19037C58.7201 8.65605 57.4332 8.35736 56.0777 8.35736C55.9054 8.35736 55.7329 8.36191 55.5632 8.37264C54.8612 8.36646 54.1564 8.45714 53.4741 8.66515C53.036 8.79548 52.6327 8.95311 52.2621 9.13056V8.00537H46.8735V23.7035C46.8735 24.9727 47.8802 26 49.1234 26H52.2621V14.477C52.2742 14.4712 52.2863 14.465 52.2997 14.4585C53.1366 13.8556 54.1564 13.502 55.2572 13.502C55.6577 13.502 56.0477 13.5494 56.4228 13.6365L56.7494 13.2186L58.3724 11.1424L59.8795 9.19037Z" fill="#F56A00"/>
<path fill-rule="evenodd" clip-rule="evenodd" d="M16.3531 18.7099C15.8087 19.406 15.8087 20.3288 16.3531 21.0253L20.2046 25.9076H28.6224L19.7191 14.4324L16.3531 18.7099Z" fill="#F56A00"/>
<path fill-rule="evenodd" clip-rule="evenodd" d="M36.4956 25.9072H40.4863V8.01489H34.2461V23.5888C34.2461 24.8694 35.2534 25.9072 36.4956 25.9072" fill="#F56A00"/>
<mask id="mask0_2234_11529" style="mask-type:luminance" maskUnits="userSpaceOnUse" x="0" y="0" width="18" height="26">
<path fill-rule="evenodd" clip-rule="evenodd" d="M0 0H17.6632V25.9071H0V0Z" fill="white"/>
</mask>
<g mask="url(#mask0_2234_11529)">
<path fill-rule="evenodd" clip-rule="evenodd" d="M16.7967 10.6949L8.54735 0H0.0907328L9.23946 11.965C9.67562 12.5185 9.75011 13.2134 9.3442 13.8465L0 25.9071H8.73645L16.9371 15.1641C17.9947 13.8202 17.8537 12.0388 16.7967 10.6949" fill="#F56A00"/>
</g>
<mask id="mask1_2234_11529" style="mask-type:luminance" maskUnits="userSpaceOnUse" x="15" y="0" width="14" height="12">
<path fill-rule="evenodd" clip-rule="evenodd" d="M15.8555 0H28.7047V11.7731H15.8555V0Z" fill="white"/>
</mask>
<g mask="url(#mask1_2234_11529)">
<path fill-rule="evenodd" clip-rule="evenodd" d="M19.5668 11.7733L28.7047 0H20.2048L16.2638 5.04062C15.7194 5.73712 15.7194 6.66016 16.2638 7.35634L19.5668 11.7733Z" fill="#F56A00"/>
</g>
<path fill-rule="evenodd" clip-rule="evenodd" d="M30.4506 0L26.395 5.50084H45.9936C47.2362 5.50084 48.2435 4.4725 48.2435 3.20398V0H30.4506Z" fill="#F56A00"/>
<mask id="mask2_2234_11529" style="mask-type:luminance" maskUnits="userSpaceOnUse" x="151" y="8" width="13" height="18">
<path fill-rule="evenodd" clip-rule="evenodd" d="M151 8.00537H164V25.8798H151V8.00537Z" fill="white"/>
</mask>
<g mask="url(#mask2_2234_11529)">
<path fill-rule="evenodd" clip-rule="evenodd" d="M160.2 8.24458C160.027 8.24458 159.855 8.24913 159.686 8.25986C158.984 8.25368 158.279 8.34403 157.597 8.55204C157.16 8.68237 156.756 8.84 156.386 9.01746V8.00537H151V23.4301C151 24.7829 152.074 25.8798 153.399 25.8798H156.386V14.3616C156.398 14.3555 156.41 14.3496 156.424 14.3431C157.26 13.7405 158.279 13.3869 159.38 13.3869C159.78 13.3869 160.17 13.4341 160.544 13.5215L160.871 13.1038L162.493 11.0283L164 9.07726C162.841 8.54294 161.555 8.24458 160.2 8.24458" fill="#F56A00"/>
</g>
<path fill-rule="evenodd" clip-rule="evenodd" d="M126.28 6.1676C126.28 5.40707 126.884 4.7902 127.629 4.7902H129.109L132.769 0.0534668H125.991C123.175 0.0534668 120.894 2.38283 120.894 5.25692V23.6588C120.894 23.6985 120.895 23.7388 120.896 23.7784C120.951 24.8679 121.746 25.7587 122.781 25.9316C122.901 25.9514 123.022 25.9622 123.148 25.9622L126.283 25.9316L126.28 6.1676Z" fill="#F56A00"/>
<path fill-rule="evenodd" clip-rule="evenodd" d="M148.711 16.334C148.422 11.5855 144.486 7.84725 139.727 8.00065C135.211 8.14658 131.512 11.8641 131.301 16.4721C131.068 21.5816 135.057 25.7987 140.01 25.7987C140.133 25.7987 140.254 25.7961 140.375 25.7912C140.419 25.7886 140.464 25.7873 140.508 25.7837C140.623 25.7775 140.738 25.7688 140.852 25.7577C140.892 25.7538 140.93 25.7489 140.969 25.7454C141.179 25.7216 141.386 25.6908 141.59 25.6524C141.649 25.6414 141.709 25.63 141.767 25.6173C141.882 25.5939 141.996 25.5679 142.109 25.538C142.161 25.5257 142.212 25.512 142.263 25.4974C142.366 25.4701 142.469 25.4405 142.569 25.408C142.607 25.397 142.644 25.3846 142.682 25.3723C142.704 25.3661 142.725 25.3586 142.746 25.3511C142.788 25.3375 142.829 25.3225 142.87 25.3076C142.92 25.2904 142.971 25.2731 143.02 25.253C143.118 25.2159 143.217 25.1776 143.314 25.1366C143.508 25.056 143.699 24.9679 143.884 24.8724C143.932 24.849 143.978 24.8256 144.024 24.8009C144.162 24.7265 144.3 24.6494 144.433 24.5691C144.523 24.5158 144.612 24.4612 144.699 24.4027C144.742 24.3745 144.785 24.3459 144.829 24.3163C144.915 24.2578 145 24.197 145.084 24.1366C145.169 24.0745 145.251 24.0111 145.333 23.9467C146.477 23.0432 147.398 21.8556 147.988 20.4886H142.923C142.097 21.1871 141.025 21.5953 139.859 21.5569C137.528 21.4806 135.596 19.5701 135.453 17.193C135.29 14.4837 137.393 12.2352 140.01 12.2352C141.955 12.2352 143.616 13.4758 144.274 15.2234H137.362V16.5108C137.362 17.8638 138.437 18.9604 139.762 18.9604H146.328H148.494C148.59 18.548 148.658 18.1225 148.695 17.6899C148.705 17.5622 148.714 17.4335 148.721 17.3032C148.721 17.2921 148.722 17.2798 148.722 17.2687C148.725 17.2115 148.726 17.1543 148.727 17.0978C148.729 17.0318 148.73 16.9648 148.73 16.8979C148.73 16.7084 148.724 16.5212 148.711 16.334" fill="#F56A00"/>
<path fill-rule="evenodd" clip-rule="evenodd" d="M114.58 9.91818V8.07471H103.767C100.818 8.07471 98.4287 10.5143 98.4287 13.5242C98.4287 16.5338 100.818 18.9737 103.767 18.9737H110.015C110.7 18.9737 111.255 19.5399 111.255 20.2386C111.255 20.9368 110.7 21.5033 110.015 21.5033H98.8085V23.3464C98.8085 24.6994 99.8827 25.7964 101.208 25.7964H110.084C113.09 25.7964 115.528 23.3081 115.528 20.2386C115.528 17.1692 113.09 14.6806 110.084 14.6806H103.767C103.141 14.6806 102.634 14.1632 102.634 13.5242C102.634 12.8855 103.141 12.3678 103.767 12.3678H112.181C113.506 12.3678 114.58 11.2712 114.58 9.91818" fill="#F56A00"/>
<path fill-rule="evenodd" clip-rule="evenodd" d="M128.892 12.371H116.948V8.07471H131.292V9.92143C131.292 11.2741 130.217 12.371 128.892 12.371" fill="#F56A00"/>
<path fill-rule="evenodd" clip-rule="evenodd" d="M96.428 15.9237C96.2453 12.3401 93.2476 9.15108 90.0379 8.56703C88.7612 8.33562 87.4257 8.4484 86.2147 8.94437C86.0851 8.99637 85.1711 9.34673 85.1711 9.49657V8.08081H80.063V25.9052H82.7824C84.1027 25.9052 85.1749 24.817 85.1819 23.4692C85.1934 21.1986 85.2141 17.941 85.2424 16.4187C85.2488 16.0943 85.2545 15.8493 85.2609 15.7085C85.2691 15.5353 85.2873 15.3682 85.3153 15.2074C85.662 13.7867 86.9042 12.7347 88.3821 12.7347C90.0551 12.7347 91.4253 14.0812 91.5389 15.7852C91.5399 15.82 91.5408 15.8545 91.5418 15.8892V16.2009V25.8863H96.428V18.5062C96.428 17.7269 96.4729 16.8198 96.428 15.9237" fill="#F56A00"/>
<path fill-rule="evenodd" clip-rule="evenodd" d="M71.9814 8.08081V9.30708C69.4854 7.52634 65.242 7.60694 62.591 10.2548C59.9594 12.8858 59.323 16.0699 60.146 19.5928C61.2682 24.4055 65.8255 26.8113 69.9556 25.545V21.2428C69.5373 21.3699 69.0881 21.4369 68.6141 21.432C66.1569 21.407 64.4187 19.5544 64.4251 16.9683C64.4308 14.4439 66.2079 12.579 68.6128 12.5715C70.019 12.5666 71.2128 13.1767 71.9814 14.1751V19.2863V19.8453V23.437C71.9814 24.79 73.0555 25.8866 74.3808 25.8866H77.3559V8.08081H71.9814Z" fill="#F56A00"/>
</svg>
