<svg viewBox="0 0 1024 1024" version="1.1" xmlns="http://www.w3.org/2000/svg" width="16px" height="16px">
    <path
        d="M330.965333 270.634667L512 89.642667l181.034667 180.992L512 451.669333 330.965333 270.634667z m120.704 0L512 210.346667l60.330667 60.330666L512 330.965333l-60.330667-60.330666zM89.6 512l181.034667-181.034667L451.669333 512l-181.034666 181.034667L89.642667 512z m120.704 0l60.330667-60.330667L330.965333 512l-60.330666 60.330667L210.346667 512zM572.330667 512l181.034666 181.034667L934.4 512l-181.034667-181.034667L572.330667 512z m181.034666-60.330667L693.034667 512l60.330666 60.330667L813.653333 512l-60.330666-60.330667zM330.965333 753.365333L512 572.330667l181.034667 181.034666L512 934.4l-181.034667-181.034667z m120.704 0L512 693.034667l60.330667 60.330666L512 813.696l-60.330667-60.330667z"
        fill="#000000" p-id="5857"></path>
</svg>