<?xml version="1.0" encoding="UTF-8" standalone="no"?><svg xmlns="http://www.w3.org/2000/svg" xmlns:xlink="http://www.w3.org/1999/xlink" contentStyleType="text/css" height="1773px" preserveAspectRatio="none" style="width:709px;height:1773px;background:#FFFFFF;" version="1.1" viewBox="0 0 709 1773" width="709px" zoomAndPan="magnify"><defs/><g><ellipse cx="363.5" cy="20" fill="#222222" rx="10" ry="10" style="stroke:#222222;stroke-width:1.0;"/><rect fill="none" height="402.926" style="stroke:#000000;stroke-width:1.5;" width="325" x="201" y="40"/><path d="M309,40 L309,51.4775 L299,61.4775 L201,61.4775 " fill="none" style="stroke:#000000;stroke-width:1.5;"/><text fill="#000000" font-family="sans-serif" font-size="14" lengthAdjust="spacing" textLength="98" x="204" y="55.8135">启动开发服务器</text><rect fill="#F1F1F1" height="35.8379" rx="12.5" ry="12.5" style="stroke:#181818;stroke-width:0.5;" width="305" x="211" y="78.4775"/><text fill="#000000" font-family="sans-serif" font-size="12" lengthAdjust="spacing" textLength="285" x="221" y="101.1748">校验当前目录是否为一个 React Native 项目的根目录</text><rect fill="#F1F1F1" height="35.8379" rx="12.5" ry="12.5" style="stroke:#181818;stroke-width:0.5;" width="296" x="215.5" y="134.3154"/><text fill="#000000" font-family="sans-serif" font-size="12" lengthAdjust="spacing" textLength="276" x="225.5" y="157.0127">如果启动参数没有端口号配置，交互提示输入端口号</text><rect fill="#F1F1F1" height="35.8379" rx="12.5" ry="12.5" style="stroke:#181818;stroke-width:0.5;" width="156" x="285.5" y="239.4124"/><text fill="#000000" font-family="sans-serif" font-size="12" lengthAdjust="spacing" textLength="136" x="295.5" y="262.1096">提示kill掉占用端口的进程</text><polygon fill="#F1F1F1" points="339,190.1533,388,190.1533,400,202.1533,388,214.1533,339,214.1533,327,202.1533,339,190.1533" style="stroke:#181818;stroke-width:0.5;"/><text fill="#000000" font-family="sans-serif" font-size="11" lengthAdjust="spacing" textLength="17" x="367.5" y="225.7925">yes</text><text fill="#000000" font-family="sans-serif" font-size="11" lengthAdjust="spacing" textLength="49" x="339" y="206.5334">端口占用?</text><polygon fill="#F1F1F1" points="363.5,295.2502,375.5,307.2502,363.5,319.2502,351.5,307.2502,363.5,295.2502" style="stroke:#181818;stroke-width:0.5;"/><rect fill="#F1F1F1" height="35.8379" rx="12.5" ry="12.5" style="stroke:#181818;stroke-width:0.5;" width="108" x="309.5" y="339.2502"/><text fill="#000000" font-family="sans-serif" font-size="12" lengthAdjust="spacing" textLength="84" x="323.5" y="361.9475">启动rn开发服务</text><rect fill="#F1F1F1" height="35.8379" rx="12.5" ry="12.5" style="stroke:#181818;stroke-width:0.5;" width="247" x="240" y="395.0881"/><text fill="#000000" font-family="sans-serif" font-size="12" lengthAdjust="spacing" textLength="227" x="250" y="417.7854">显示服务二维码（包含服务ip和端口信息）</text><rect fill="#F1F1F1" height="35.8379" rx="12.5" ry="12.5" style="stroke:#181818;stroke-width:0.5;" width="92" x="317.5" y="462.926"/><text fill="#000000" font-family="sans-serif" font-size="12" lengthAdjust="spacing" textLength="72" x="327.5" y="485.6233">打印提示面板</text><rect fill="#F1F1F1" height="35.8379" rx="12.5" ry="12.5" style="stroke:#181818;stroke-width:0.5;" width="92" x="317.5" y="518.7639"/><text fill="#000000" font-family="sans-serif" font-size="12" lengthAdjust="spacing" textLength="72" x="327.5" y="541.4612">处理输入事件</text><rect fill="#555555" height="6" rx="2.5" ry="2.5" style="stroke:#555555;stroke-width:1.0;" width="687" x="11" y="574.6018"/><rect fill="#F1F1F1" height="35.8379" rx="12.5" ry="12.5" style="stroke:#181818;stroke-width:0.5;" width="147" x="134" y="600.6018"/><text fill="#000000" font-family="sans-serif" font-size="12" lengthAdjust="spacing" textLength="127" x="144" y="623.2991">输入a：在安卓设备打开</text><rect fill="none" height="528.0652" style="stroke:#000000;stroke-width:1.5;" width="369" x="23" y="646.4397"/><path d="M131,646.4397 L131,657.9172 L121,667.9172 L23,667.9172 " fill="none" style="stroke:#000000;stroke-width:1.5;"/><text fill="#000000" font-family="sans-serif" font-size="14" lengthAdjust="spacing" textLength="98" x="26" y="662.2532">设备选择与启动</text><rect fill="#F1F1F1" height="35.8379" rx="12.5" ry="12.5" style="stroke:#181818;stroke-width:0.5;" width="128" x="143.5" y="684.9172"/><text fill="#000000" font-family="sans-serif" font-size="12" lengthAdjust="spacing" textLength="108" x="153.5" y="707.6145">环境和必要工具检测</text><rect fill="#F1F1F1" height="35.8379" rx="12.5" ry="12.5" style="stroke:#181818;stroke-width:0.5;" width="140" x="137.5" y="740.7551"/><text fill="#000000" font-family="sans-serif" font-size="12" lengthAdjust="spacing" textLength="120" x="147.5" y="763.4524">查询已启用的设备列表</text><polygon fill="#F1F1F1" points="45,796.593,160,796.593,172,808.593,160,820.593,45,820.593,33,808.593,45,796.593" style="stroke:#181818;stroke-width:0.5;"/><text fill="#000000" font-family="sans-serif" font-size="11" lengthAdjust="spacing" textLength="17" x="106.5" y="832.2322">yes</text><text fill="#000000" font-family="sans-serif" font-size="11" lengthAdjust="spacing" textLength="115" x="45" y="812.9731">存在多个已启用的设备?</text><rect fill="#F1F1F1" height="35.8379" rx="12.5" ry="12.5" style="stroke:#181818;stroke-width:0.5;" width="68" x="68.5" y="853.7322"/><text fill="#000000" font-family="sans-serif" font-size="12" lengthAdjust="spacing" textLength="48" x="78.5" y="876.4294">选择设备</text><polygon fill="#F1F1F1" points="206.5,796.593,305.5,796.593,317.5,808.593,305.5,820.593,206.5,820.593,194.5,808.593,206.5,796.593" style="stroke:#181818;stroke-width:0.5;"/><text fill="#000000" font-family="sans-serif" font-size="11" lengthAdjust="spacing" textLength="17" x="260" y="832.2322">yes</text><text fill="#000000" font-family="sans-serif" font-size="11" lengthAdjust="spacing" textLength="99" x="206.5" y="812.9731">不存在已启用设备？</text><rect fill="#F1F1F1" height="35.8379" rx="12.5" ry="12.5" style="stroke:#181818;stroke-width:0.5;" width="128" x="192" y="853.7322"/><text fill="#000000" font-family="sans-serif" font-size="12" lengthAdjust="spacing" textLength="108" x="202" y="876.4294">查询未启动设备列表</text><rect fill="#F1F1F1" height="35.8379" rx="12.5" ry="12.5" style="stroke:#181818;stroke-width:0.5;" width="104" x="204" y="958.8291"/><text fill="#000000" font-family="sans-serif" font-size="12" lengthAdjust="spacing" textLength="84" x="214" y="981.5264">交互，选择设备</text><polygon fill="#F1F1F1" points="204,909.5701,308,909.5701,320,921.5701,308,933.5701,204,933.5701,192,921.5701,204,909.5701" style="stroke:#181818;stroke-width:0.5;"/><text fill="#000000" font-family="sans-serif" font-size="11" lengthAdjust="spacing" textLength="17" x="260" y="945.2092">yes</text><text fill="#000000" font-family="sans-serif" font-size="11" lengthAdjust="spacing" textLength="104" x="204" y="925.9502">存在多个未启用设备?</text><polygon fill="#F1F1F1" points="256,1014.667,268,1026.667,256,1038.667,244,1026.667,256,1014.667" style="stroke:#181818;stroke-width:0.5;"/><rect fill="#F1F1F1" height="35.8379" rx="12.5" ry="12.5" style="stroke:#181818;stroke-width:0.5;" width="68" x="222" y="1058.667"/><text fill="#000000" font-family="sans-serif" font-size="12" lengthAdjust="spacing" textLength="48" x="232" y="1081.3643">启用设备</text><rect fill="#F1F1F1" height="35.8379" rx="12.5" ry="12.5" style="stroke:#181818;stroke-width:0.5;" width="80" x="167.5" y="1199.9238"/><text fill="#000000" font-family="sans-serif" font-size="12" lengthAdjust="spacing" textLength="60" x="177.5" y="1222.6211">端口号映射</text><rect fill="none" height="440.3472" style="stroke:#000000;stroke-width:1.5;" width="261" x="83" y="1245.7617"/><path d="M203,1245.7617 L203,1257.2393 L193,1267.2393 L83,1267.2393 " fill="none" style="stroke:#000000;stroke-width:1.5;"/><text fill="#000000" font-family="sans-serif" font-size="14" lengthAdjust="spacing" textLength="110" x="86" y="1261.5752">app下载安装启动</text><rect fill="#F1F1F1" height="35.8379" rx="12.5" ry="12.5" style="stroke:#181818;stroke-width:0.5;" width="209" x="103" y="1333.4983"/><text fill="#000000" font-family="sans-serif" font-size="12" lengthAdjust="spacing" textLength="189" x="113" y="1356.1956">交互：选择一个包版本 or 最新版本</text><rect fill="#F1F1F1" height="35.8379" rx="12.5" ry="12.5" style="stroke:#181818;stroke-width:0.5;" width="78" x="168.5" y="1438.5952"/><text fill="#000000" font-family="sans-serif" font-size="12" lengthAdjust="spacing" textLength="58" x="178.5" y="1461.2925">下载apk包</text><polygon fill="#F1F1F1" points="159.5,1389.3362,255.5,1389.3362,267.5,1401.3362,255.5,1413.3362,159.5,1413.3362,147.5,1401.3362,159.5,1389.3362" style="stroke:#181818;stroke-width:0.5;"/><text fill="#000000" font-family="sans-serif" font-size="11" lengthAdjust="spacing" textLength="14" x="211.5" y="1424.9753">no</text><text fill="#000000" font-family="sans-serif" font-size="11" lengthAdjust="spacing" textLength="96" x="159.5" y="1405.7163">有下载好的apk包？</text><polygon fill="#F1F1F1" points="207.5,1494.4331,219.5,1506.4331,207.5,1518.4331,195.5,1506.4331,207.5,1494.4331" style="stroke:#181818;stroke-width:0.5;"/><rect fill="#F1F1F1" height="35.8379" rx="12.5" ry="12.5" style="stroke:#181818;stroke-width:0.5;" width="72" x="171.5" y="1538.4331"/><text fill="#000000" font-family="sans-serif" font-size="12" lengthAdjust="spacing" textLength="52" x="181.5" y="1561.1304">安装 App</text><polygon fill="#F1F1F1" points="175.5,1284.2393,239.5,1284.2393,251.5,1296.2393,239.5,1308.2393,175.5,1308.2393,163.5,1296.2393,175.5,1284.2393" style="stroke:#181818;stroke-width:0.5;"/><text fill="#000000" font-family="sans-serif" font-size="11" lengthAdjust="spacing" textLength="14" x="211.5" y="1319.8784">no</text><text fill="#000000" font-family="sans-serif" font-size="11" lengthAdjust="spacing" textLength="64" x="175.5" y="1300.6194">app已安装？</text><polygon fill="#F1F1F1" points="207.5,1594.271,219.5,1606.271,207.5,1618.271,195.5,1606.271,207.5,1594.271" style="stroke:#181818;stroke-width:0.5;"/><rect fill="#F1F1F1" height="35.8379" rx="12.5" ry="12.5" style="stroke:#181818;stroke-width:0.5;" width="71" x="172" y="1638.271"/><text fill="#000000" font-family="sans-serif" font-size="12" lengthAdjust="spacing" textLength="51" x="182" y="1660.9683">启动 app</text><rect fill="#F1F1F1" height="35.8379" rx="12.5" ry="12.5" style="stroke:#181818;stroke-width:0.5;" width="156" x="420" y="1088.248"/><text fill="#000000" font-family="sans-serif" font-size="12" lengthAdjust="spacing" textLength="136" x="430" y="1110.9453">输入o：在iOS模拟器打开</text><rect fill="#F1F1F1" height="35.8379" rx="12.5" ry="12.5" style="stroke:#181818;stroke-width:0.5;" width="96" x="450" y="1144.0859"/><text fill="#000000" font-family="sans-serif" font-size="12" lengthAdjust="spacing" textLength="76" x="460" y="1166.7832">同 在安卓打开</text><rect fill="#F1F1F1" height="35.8379" rx="12.5" ry="12.5" style="stroke:#181818;stroke-width:0.5;" width="100" x="586" y="1088.248"/><text fill="#000000" font-family="sans-serif" font-size="12" lengthAdjust="spacing" textLength="80" x="596" y="1110.9453">在iOS设备打开</text><rect fill="#F1F1F1" height="35.8379" rx="12.5" ry="12.5" style="stroke:#181818;stroke-width:0.5;" width="96" x="588" y="1144.0859"/><text fill="#000000" font-family="sans-serif" font-size="12" lengthAdjust="spacing" textLength="76" x="598" y="1166.7832">同 在安卓打开</text><polygon fill="#F1F1F1" points="363.5,1696.1089,375.5,1708.1089,363.5,1720.1089,351.5,1708.1089,363.5,1696.1089" style="stroke:#181818;stroke-width:0.5;"/><ellipse cx="363.5" cy="1751.1089" fill="none" rx="11" ry="11" style="stroke:#222222;stroke-width:1.0;"/><ellipse cx="363.5" cy="1751.1089" fill="#222222" rx="6" ry="6" style="stroke:#111111;stroke-width:1.0;"/><line style="stroke:#181818;stroke-width:1.0;" x1="363.5" x2="363.5" y1="114.3154" y2="134.3154"/><polygon fill="#181818" points="359.5,124.3154,363.5,134.3154,367.5,124.3154,363.5,128.3154" style="stroke:#181818;stroke-width:1.0;"/><line style="stroke:#181818;stroke-width:1.0;" x1="363.5" x2="363.5" y1="214.1533" y2="239.4124"/><polygon fill="#181818" points="359.5,229.4124,363.5,239.4124,367.5,229.4124,363.5,233.4124" style="stroke:#181818;stroke-width:1.0;"/><line style="stroke:#181818;stroke-width:1.0;" x1="400" x2="451.5" y1="202.1533" y2="202.1533"/><polygon fill="#181818" points="447.5,247.3313,451.5,257.3313,455.5,247.3313,451.5,251.3313" style="stroke:#181818;stroke-width:1.0;"/><line style="stroke:#181818;stroke-width:1.0;" x1="451.5" x2="451.5" y1="202.1533" y2="307.2502"/><line style="stroke:#181818;stroke-width:1.0;" x1="451.5" x2="375.5" y1="307.2502" y2="307.2502"/><polygon fill="#181818" points="385.5,303.2502,375.5,307.2502,385.5,311.2502,381.5,307.2502" style="stroke:#181818;stroke-width:1.0;"/><line style="stroke:#181818;stroke-width:1.0;" x1="363.5" x2="363.5" y1="275.2502" y2="295.2502"/><polygon fill="#181818" points="359.5,285.2502,363.5,295.2502,367.5,285.2502,363.5,289.2502" style="stroke:#181818;stroke-width:1.0;"/><line style="stroke:#181818;stroke-width:1.0;" x1="363.5" x2="363.5" y1="170.1533" y2="190.1533"/><polygon fill="#181818" points="359.5,180.1533,363.5,190.1533,367.5,180.1533,363.5,184.1533" style="stroke:#181818;stroke-width:1.0;"/><line style="stroke:#181818;stroke-width:1.0;" x1="363.5" x2="363.5" y1="319.2502" y2="339.2502"/><polygon fill="#181818" points="359.5,329.2502,363.5,339.2502,367.5,329.2502,363.5,333.2502" style="stroke:#181818;stroke-width:1.0;"/><line style="stroke:#181818;stroke-width:1.0;" x1="363.5" x2="363.5" y1="375.0881" y2="395.0881"/><polygon fill="#181818" points="359.5,385.0881,363.5,395.0881,367.5,385.0881,363.5,389.0881" style="stroke:#181818;stroke-width:1.0;"/><line style="stroke:#181818;stroke-width:1.0;" x1="363.5" x2="363.5" y1="30" y2="78.4775"/><polygon fill="#181818" points="359.5,68.4775,363.5,78.4775,367.5,68.4775,363.5,72.4775" style="stroke:#181818;stroke-width:1.0;"/><line style="stroke:#181818;stroke-width:1.0;" x1="363.5" x2="363.5" y1="430.926" y2="462.926"/><polygon fill="#181818" points="359.5,452.926,363.5,462.926,367.5,452.926,363.5,456.926" style="stroke:#181818;stroke-width:1.0;"/><line style="stroke:#181818;stroke-width:1.0;" x1="363.5" x2="363.5" y1="498.7639" y2="518.7639"/><polygon fill="#181818" points="359.5,508.7639,363.5,518.7639,367.5,508.7639,363.5,512.7639" style="stroke:#181818;stroke-width:1.0;"/><line style="stroke:#181818;stroke-width:1.0;" x1="207.5" x2="207.5" y1="720.7551" y2="740.7551"/><polygon fill="#181818" points="203.5,730.7551,207.5,740.7551,211.5,730.7551,207.5,734.7551" style="stroke:#181818;stroke-width:1.0;"/><line style="stroke:#181818;stroke-width:1.0;" x1="256" x2="256" y1="933.5701" y2="958.8291"/><polygon fill="#181818" points="252,948.8291,256,958.8291,260,948.8291,256,952.8291" style="stroke:#181818;stroke-width:1.0;"/><line style="stroke:#181818;stroke-width:1.0;" x1="320" x2="332" y1="921.5701" y2="921.5701"/><polygon fill="#181818" points="328,966.748,332,976.748,336,966.748,332,970.748" style="stroke:#181818;stroke-width:1.0;"/><line style="stroke:#181818;stroke-width:1.0;" x1="332" x2="332" y1="921.5701" y2="1026.667"/><line style="stroke:#181818;stroke-width:1.0;" x1="332" x2="268" y1="1026.667" y2="1026.667"/><polygon fill="#181818" points="278,1022.667,268,1026.667,278,1030.667,274,1026.667" style="stroke:#181818;stroke-width:1.0;"/><line style="stroke:#181818;stroke-width:1.0;" x1="256" x2="256" y1="994.667" y2="1014.667"/><polygon fill="#181818" points="252,1004.667,256,1014.667,260,1004.667,256,1008.667" style="stroke:#181818;stroke-width:1.0;"/><line style="stroke:#181818;stroke-width:1.0;" x1="256" x2="256" y1="889.5701" y2="909.5701"/><polygon fill="#181818" points="252,899.5701,256,909.5701,260,899.5701,256,903.5701" style="stroke:#181818;stroke-width:1.0;"/><line style="stroke:#181818;stroke-width:1.0;" x1="256" x2="256" y1="1038.667" y2="1058.667"/><polygon fill="#181818" points="252,1048.667,256,1058.667,260,1048.667,256,1052.667" style="stroke:#181818;stroke-width:1.0;"/><line style="stroke:#181818;stroke-width:1.0;" x1="102.5" x2="102.5" y1="820.593" y2="853.7322"/><polygon fill="#181818" points="98.5,843.7322,102.5,853.7322,106.5,843.7322,102.5,847.7322" style="stroke:#181818;stroke-width:1.0;"/><line style="stroke:#181818;stroke-width:1.0;" x1="102.5" x2="102.5" y1="889.5701" y2="1154.5049"/><polygon fill="#181818" points="98.5,1144.5049,102.5,1154.5049,106.5,1144.5049,102.5,1148.5049" style="stroke:#181818;stroke-width:1.0;"/><line style="stroke:#181818;stroke-width:1.0;" x1="256" x2="256" y1="820.593" y2="853.7322"/><polygon fill="#181818" points="252,843.7322,256,853.7322,260,843.7322,256,847.7322" style="stroke:#181818;stroke-width:1.0;"/><line style="stroke:#181818;stroke-width:1.0;" x1="256" x2="256" y1="1094.5049" y2="1154.5049"/><polygon fill="#181818" points="252,1144.5049,256,1154.5049,260,1144.5049,256,1148.5049" style="stroke:#181818;stroke-width:1.0;"/><line style="stroke:#181818;stroke-width:1.0;" x1="172" x2="194.5" y1="808.593" y2="808.593"/><polygon fill="#181818" points="184.5,804.593,194.5,808.593,184.5,812.593,188.5,808.593" style="stroke:#181818;stroke-width:1.0;"/><line style="stroke:#181818;stroke-width:1.0;" x1="207.5" x2="207.5" y1="776.593" y2="781.593"/><line style="stroke:#181818;stroke-width:1.0;" x1="207.5" x2="102.5" y1="781.593" y2="781.593"/><line style="stroke:#181818;stroke-width:1.0;" x1="102.5" x2="102.5" y1="781.593" y2="796.593"/><polygon fill="#181818" points="98.5,786.593,102.5,796.593,106.5,786.593,102.5,790.593" style="stroke:#181818;stroke-width:1.0;"/><line style="stroke:#181818;stroke-width:1.0;" x1="317.5" x2="367" y1="808.593" y2="808.593"/><line style="stroke:#181818;stroke-width:1.0;" x1="367" x2="367" y1="808.593" y2="972.489"/><line style="stroke:#181818;stroke-width:1.0;" x1="367" x2="367" y1="972.489" y2="1154.5049"/><polygon fill="#181818" points="363,1144.5049,367,1154.5049,371,1144.5049,367,1148.5049" style="stroke:#181818;stroke-width:1.0;"/><text fill="#000000" font-family="sans-serif" font-size="11" lengthAdjust="spacing" textLength="14" x="371" y="1065.2476">no</text><line style="stroke:#181818;stroke-width:1.0;" x1="102.5" x2="367" y1="1154.5049" y2="1154.5049"/><line style="stroke:#181818;stroke-width:1.0;" x1="207.5" x2="207.5" y1="636.4397" y2="684.9172"/><polygon fill="#181818" points="203.5,674.9172,207.5,684.9172,211.5,674.9172,207.5,678.9172" style="stroke:#181818;stroke-width:1.0;"/><line style="stroke:#181818;stroke-width:1.0;" x1="207.5" x2="207.5" y1="1154.5049" y2="1199.9238"/><polygon fill="#181818" points="203.5,1189.9238,207.5,1199.9238,211.5,1189.9238,207.5,1193.9238" style="stroke:#181818;stroke-width:1.0;"/><line style="stroke:#181818;stroke-width:1.0;" x1="207.5" x2="207.5" y1="1413.3362" y2="1438.5952"/><polygon fill="#181818" points="203.5,1428.5952,207.5,1438.5952,211.5,1428.5952,207.5,1432.5952" style="stroke:#181818;stroke-width:1.0;"/><line style="stroke:#181818;stroke-width:1.0;" x1="267.5" x2="279.5" y1="1401.3362" y2="1401.3362"/><polygon fill="#181818" points="275.5,1446.5142,279.5,1456.5142,283.5,1446.5142,279.5,1450.5142" style="stroke:#181818;stroke-width:1.0;"/><line style="stroke:#181818;stroke-width:1.0;" x1="279.5" x2="279.5" y1="1401.3362" y2="1506.4331"/><line style="stroke:#181818;stroke-width:1.0;" x1="279.5" x2="219.5" y1="1506.4331" y2="1506.4331"/><polygon fill="#181818" points="229.5,1502.4331,219.5,1506.4331,229.5,1510.4331,225.5,1506.4331" style="stroke:#181818;stroke-width:1.0;"/><line style="stroke:#181818;stroke-width:1.0;" x1="207.5" x2="207.5" y1="1474.4331" y2="1494.4331"/><polygon fill="#181818" points="203.5,1484.4331,207.5,1494.4331,211.5,1484.4331,207.5,1488.4331" style="stroke:#181818;stroke-width:1.0;"/><line style="stroke:#181818;stroke-width:1.0;" x1="207.5" x2="207.5" y1="1369.3362" y2="1389.3362"/><polygon fill="#181818" points="203.5,1379.3362,207.5,1389.3362,211.5,1379.3362,207.5,1383.3362" style="stroke:#181818;stroke-width:1.0;"/><line style="stroke:#181818;stroke-width:1.0;" x1="207.5" x2="207.5" y1="1518.4331" y2="1538.4331"/><polygon fill="#181818" points="203.5,1528.4331,207.5,1538.4331,211.5,1528.4331,207.5,1532.4331" style="stroke:#181818;stroke-width:1.0;"/><line style="stroke:#181818;stroke-width:1.0;" x1="207.5" x2="207.5" y1="1308.2393" y2="1333.4983"/><polygon fill="#181818" points="203.5,1323.4983,207.5,1333.4983,211.5,1323.4983,207.5,1327.4983" style="stroke:#181818;stroke-width:1.0;"/><line style="stroke:#181818;stroke-width:1.0;" x1="251.5" x2="322" y1="1296.2393" y2="1296.2393"/><polygon fill="#181818" points="318,1446.5142,322,1456.5142,326,1446.5142,322,1450.5142" style="stroke:#181818;stroke-width:1.0;"/><line style="stroke:#181818;stroke-width:1.0;" x1="322" x2="322" y1="1296.2393" y2="1606.271"/><line style="stroke:#181818;stroke-width:1.0;" x1="322" x2="219.5" y1="1606.271" y2="1606.271"/><polygon fill="#181818" points="229.5,1602.271,219.5,1606.271,229.5,1610.271,225.5,1606.271" style="stroke:#181818;stroke-width:1.0;"/><line style="stroke:#181818;stroke-width:1.0;" x1="207.5" x2="207.5" y1="1574.271" y2="1594.271"/><polygon fill="#181818" points="203.5,1584.271,207.5,1594.271,211.5,1584.271,207.5,1588.271" style="stroke:#181818;stroke-width:1.0;"/><line style="stroke:#181818;stroke-width:1.0;" x1="207.5" x2="207.5" y1="1618.271" y2="1638.271"/><polygon fill="#181818" points="203.5,1628.271,207.5,1638.271,211.5,1628.271,207.5,1632.271" style="stroke:#181818;stroke-width:1.0;"/><line style="stroke:#181818;stroke-width:1.0;" x1="207.5" x2="207.5" y1="1235.7617" y2="1284.2393"/><polygon fill="#181818" points="203.5,1274.2393,207.5,1284.2393,211.5,1274.2393,207.5,1278.2393" style="stroke:#181818;stroke-width:1.0;"/><line style="stroke:#181818;stroke-width:1.0;" x1="498" x2="498" y1="1124.0859" y2="1144.0859"/><polygon fill="#181818" points="494,1134.0859,498,1144.0859,502,1134.0859,498,1138.0859" style="stroke:#181818;stroke-width:1.0;"/><line style="stroke:#181818;stroke-width:1.0;" x1="636" x2="636" y1="1124.0859" y2="1144.0859"/><polygon fill="#181818" points="632,1134.0859,636,1144.0859,640,1134.0859,636,1138.0859" style="stroke:#181818;stroke-width:1.0;"/><line style="stroke:#181818;stroke-width:1.0;" x1="207.5" x2="207.5" y1="580.6018" y2="600.6018"/><polygon fill="#181818" points="203.5,590.6018,207.5,600.6018,211.5,590.6018,207.5,594.6018" style="stroke:#181818;stroke-width:1.0;"/><line style="stroke:#181818;stroke-width:1.0;" x1="498" x2="498" y1="580.6018" y2="1088.248"/><polygon fill="#181818" points="494,1078.248,498,1088.248,502,1078.248,498,1082.248" style="stroke:#181818;stroke-width:1.0;"/><line style="stroke:#181818;stroke-width:1.0;" x1="636" x2="636" y1="580.6018" y2="1088.248"/><polygon fill="#181818" points="632,1078.248,636,1088.248,640,1078.248,636,1082.248" style="stroke:#181818;stroke-width:1.0;"/><line style="stroke:#181818;stroke-width:1.0;" x1="207.5" x2="207.5" y1="1674.1089" y2="1708.1089"/><line style="stroke:#181818;stroke-width:1.0;" x1="207.5" x2="351.5" y1="1708.1089" y2="1708.1089"/><polygon fill="#181818" points="341.5,1704.1089,351.5,1708.1089,341.5,1712.1089,345.5,1708.1089" style="stroke:#181818;stroke-width:1.0;"/><line style="stroke:#181818;stroke-width:1.0;" x1="498" x2="498" y1="1179.9238" y2="1708.1089"/><line style="stroke:#181818;stroke-width:1.0;" x1="498" x2="375.5" y1="1708.1089" y2="1708.1089"/><polygon fill="#181818" points="385.5,1704.1089,375.5,1708.1089,385.5,1712.1089,381.5,1708.1089" style="stroke:#181818;stroke-width:1.0;"/><line style="stroke:#181818;stroke-width:1.0;" x1="636" x2="636" y1="1179.9238" y2="1708.1089"/><line style="stroke:#181818;stroke-width:1.0;" x1="636" x2="375.5" y1="1708.1089" y2="1708.1089"/><polygon fill="#181818" points="385.5,1704.1089,375.5,1708.1089,385.5,1712.1089,381.5,1708.1089" style="stroke:#181818;stroke-width:1.0;"/><line style="stroke:#181818;stroke-width:1.0;" x1="363.5" x2="363.5" y1="554.6018" y2="574.6018"/><polygon fill="#181818" points="359.5,564.6018,363.5,574.6018,367.5,564.6018,363.5,568.6018" style="stroke:#181818;stroke-width:1.0;"/><line style="stroke:#181818;stroke-width:1.0;" x1="363.5" x2="363.5" y1="1720.1089" y2="1740.1089"/><polygon fill="#181818" points="359.5,1730.1089,363.5,1740.1089,367.5,1730.1089,363.5,1734.1089" style="stroke:#181818;stroke-width:1.0;"/><!--MD5=[75ef5b5ac31a2a68872eba0a9ab5223b]
@startuml
start

partition 启动开发服务器 {
  :校验当前目录是否为一个 React Native 项目的根目录;
  :如果启动参数没有端口号配置，交互提示输入端口号;
  if(端口占用?) then(yes)
  :提示kill掉占用端口的进程;
  endif
  : 启动rn开发服务;
  :显示服务二维码（包含服务ip和端口信息）;
}
:打印提示面板;
:处理输入事件;
fork
  :输入a：在安卓设备打开;

  partition 设备选择与启动 {
    :环境和必要工具检测;
    :查询已启用的设备列表;
    if(存在多个已启用的设备?) then(yes);
    :选择设备;
    else if(不存在已启用设备？)
    -> yes;
    :查询未启动设备列表;

    if(存在多个未启用设备?) then(yes)
      :交互，选择设备;
    endif;
    :启用设备;

    else
    ->no;

    endif;
    
  }

 :端口号映射; 

  partition app下载安装启动 {
    if(app已安装？) then (no)
      :交互：选择一个包版本 or 最新版本;
      if(有下载好的apk包？) then(no)
      :下载apk包;
      endif;
      :安装 App;
    endif;
    :启动 app;
  }
  
fork again
  :输入o：在iOS模拟器打开;
  :同 在安卓打开;
fork again
  :在iOS设备打开;
  :同 在安卓打开;
end merge

stop

@enduml

PlantUML version 1.2022.13(Sat Nov 19 21:22:17 CST 2022)
(GPL source distribution)
Java Runtime: OpenJDK Runtime Environment
JVM: OpenJDK 64-Bit Server VM
Default Encoding: UTF-8
Language: zh
Country: CN
--></g></svg>